<svg viewBox="0 0 220.319 220.319">
<path d="M110.16,0C49.417,0,0,49.417,0,110.16s49.417,110.159,110.16,110.159s110.16-49.417,110.16-110.159S170.902,0,110.16,0z
	 M110.16,190.001c-44.024,0-79.84-35.816-79.84-79.841s35.816-79.841,79.84-79.841S190,66.135,190,110.16
	S154.184,190.001,110.16,190.001z M150.19,95.832c0-22.237-15.607-36.052-40.73-36.052H72.24v100.76h21.34v-28.073h15.881
	c0.936,0,1.925-0.024,2.943-0.074l20.535,28.148h26.446l-25.034-34.301C144.571,119.86,150.19,109.084,150.19,95.832z
	 M109.46,111.128H93.58V81.12h15.881c19.391,0,19.391,11.072,19.391,14.712C128.852,99.614,128.852,111.128,109.46,111.128z"/>
</svg>
